<svg width="58" height="96" viewBox="0 0 58 96" fill="none" xmlns="http://www.w3.org/2000/svg">
<path d="M40.4 39.4C46.3 26 41 10.7 31.7 0.5C33.4 12.2 36.3 24.2 30.6 35.1C27.4 41.8 22.1 48 18.2 54.6C11.2 67.8 14.7 84.1 23.3 95.5C21 83.1 19.8 69.2 27.6 58.6C32.5 52.7 37.4 46.9 40.4 39.4Z" fill="black"/>
<path d="M49.8 27.7C49.4 33.6 49.7 39.7 48.2 45.1C46.2 52.3 40.5 57.5 35.9 63.4C28.9 72.7 30.3 86.1 36.9 95C37 86.1 37.4 76.5 43.7 69.9C47.9 66.1 51.8 62.2 54.5 56.9C59.8 47.4 56.9 35.3 49.8 27.7Z" fill="black"/>
<path d="M22.1 32C26.5 22.1 22.4 10.3 14.6 3.40002C14.7 9.40002 15.7 15.4 14.7 20.9C13.4 28.2 8.2 34 4.2 40.3C-1.9 50.2 0.8 63.4 8.2 71.7C7.4 62.9 6.9 53.2 12.6 46C16.3 41.8 19.8 37.6 22.1 32Z" fill="black"/>
</svg>
