<?xml version="1.0" standalone="no"?>
<!DOCTYPE svg PUBLIC "-//W3C//DTD SVG 20010904//EN"
 "http://www.w3.org/TR/2001/REC-SVG-20010904/DTD/svg10.dtd">
<svg version="1.0" xmlns="http://www.w3.org/2000/svg"
 width="1500.000000pt" height="1500.000000pt" viewBox="0 0 1500.000000 1500.000000"
 preserveAspectRatio="xMidYMid meet">

<g transform="translate(0.000000,1500.000000) scale(0.100000,-0.100000)"
fill="#000000" stroke="none">
<path d="M617 10843 c-4 -3 -7 -1509 -7 -3345 l0 -3338 6870 0 6870 0 0 3345
0 3345 -6863 0 c-3775 0 -6867 -3 -6870 -7z m2459 -1160 c211 -52 336 -108
471 -211 179 -136 284 -303 335 -531 30 -134 29 -350 -1 -474 -77 -318 -297
-523 -668 -620 -46 -12 -83 -25 -83 -28 0 -4 28 -46 63 -93 34 -47 87 -120
117 -163 30 -43 59 -83 65 -89 5 -6 28 -37 50 -68 22 -31 63 -88 90 -126 28
-38 73 -102 102 -142 29 -40 114 -159 190 -265 76 -106 145 -202 153 -213 8
-12 39 -54 68 -94 30 -39 83 -113 119 -163 l64 -93 210 0 209 0 0 -45 0 -45
-175 0 c-173 0 -176 0 -165 -20 10 -18 8 -20 -20 -20 l-31 0 3 -82 3 -83 178
-3 177 -2 0 -40 0 -40 -180 0 -180 0 0 -115 0 -115 205 0 205 0 0 -45 0 -45
-262 2 -263 3 -3 283 -2 282 -170 0 -170 0 0 -285 0 -285 -55 0 -55 0 0 287
c0 242 -2 284 -13 268 -8 -11 -42 -85 -76 -165 -35 -80 -74 -167 -86 -195 -13
-27 -37 -81 -53 -120 -30 -69 -31 -70 -68 -70 -31 0 -40 5 -54 31 -10 16 -21
41 -25 55 -4 13 -23 56 -41 96 -19 40 -34 74 -34 77 0 2 -18 44 -41 93 -57
125 -68 149 -84 186 -13 28 -14 0 -15 -255 l0 -288 -55 0 -55 0 0 350 0 350
90 0 c59 0 90 -4 90 -11 0 -6 6 -25 14 -42 8 -18 24 -53 35 -79 12 -27 29 -67
40 -90 10 -24 39 -91 64 -149 25 -59 52 -120 60 -135 l15 -29 10 25 c11 27 74
174 98 227 8 17 14 33 14 36 0 3 15 38 33 79 60 131 70 157 64 171 -3 8 -56
85 -119 173 -62 87 -125 175 -138 194 -14 19 -27 37 -30 40 -3 3 -13 16 -22
30 -18 26 -66 93 -188 262 -41 57 -84 117 -96 133 -11 17 -58 83 -105 147 -46
65 -131 184 -189 265 -58 81 -136 191 -175 245 -38 53 -77 106 -85 118 -8 12
-25 34 -37 48 l-23 27 0 -859 0 -858 64 -132 c35 -72 92 -189 126 -261 34 -71
77 -161 96 -199 19 -37 34 -70 34 -72 0 -2 -28 -4 -62 -4 l-63 0 -39 85 -39
85 -186 0 -187 0 -18 -42 c-10 -24 -28 -62 -39 -85 l-21 -43 -58 0 c-32 0 -58
2 -58 5 0 5 119 253 211 440 l49 100 -155 3 -155 3 0 1775 0 1775 553 -4 c508
-4 558 -6 633 -24z m4842 -70 c16 -43 32 -89 36 -103 4 -14 11 -34 16 -45 17
-37 80 -210 80 -220 0 -5 9 -28 20 -50 11 -22 19 -45 20 -52 0 -7 6 -27 14
-45 8 -18 31 -80 52 -138 20 -58 43 -118 50 -135 6 -16 76 -205 154 -420 78
-214 146 -399 151 -410 9 -22 102 -275 124 -340 43 -125 53 -150 65 -150 11 0
113 247 142 345 5 19 13 40 18 45 4 6 14 30 23 55 31 90 193 530 214 580 13
31 270 719 290 775 8 22 20 54 27 70 8 17 37 94 66 173 l52 142 269 0 c148 0
269 -4 269 -9 0 -8 -62 -167 -80 -206 -5 -11 -19 -47 -31 -80 -20 -55 -46
-118 -69 -170 -5 -11 -21 -51 -35 -90 -14 -38 -29 -79 -35 -90 -8 -18 -205
-515 -267 -675 -14 -36 -31 -78 -39 -95 -7 -16 -23 -57 -35 -90 -12 -33 -29
-78 -39 -100 -10 -22 -34 -83 -54 -135 -20 -52 -41 -104 -46 -115 -5 -11 -43
-108 -85 -215 -42 -107 -82 -208 -89 -225 -14 -30 -74 -181 -141 -355 -42
-107 -190 -504 -212 -565 -7 -22 -18 -49 -23 -60 -6 -11 -16 -39 -24 -62 -13
-38 -13 -43 -1 -43 13 0 15 -50 15 -350 l0 -350 -68 0 -68 0 -60 83 c-34 45
-118 161 -187 258 -69 96 -135 186 -146 200 l-20 24 -1 -282 0 -283 -55 0 -55
0 0 350 0 350 73 0 72 -1 50 -69 c66 -93 67 -93 133 -181 31 -42 93 -127 137
-188 l80 -112 3 223 2 222 -50 128 c-27 71 -50 131 -50 134 0 3 -8 24 -19 47
-10 23 -35 85 -56 137 -20 52 -42 109 -50 125 -14 33 -40 100 -109 280 -26 66
-60 152 -76 190 -16 39 -46 113 -66 165 -20 52 -44 113 -54 135 -10 22 -27 67
-39 100 -12 33 -28 74 -35 90 -13 30 -21 48 -110 280 -26 66 -51 129 -56 140
-5 11 -26 63 -46 115 -20 52 -44 113 -54 135 -10 22 -27 67 -39 100 -12 33
-28 74 -35 90 -8 17 -25 59 -39 95 -14 36 -64 164 -112 285 -48 121 -98 249
-112 285 -14 36 -31 79 -39 95 -7 17 -25 62 -39 100 -14 39 -29 79 -35 90 -5
11 -20 48 -34 83 l-25 62 299 0 298 0 30 -77z m4552 -41 c243 -57 455 -173
627 -344 46 -45 85 -89 88 -99 4 -13 -23 -45 -102 -122 -149 -143 -209 -197
-218 -197 -4 0 -40 31 -79 69 -231 225 -440 313 -675 282 -207 -27 -340 -116
-420 -281 -35 -74 -36 -76 -36 -205 0 -124 1 -132 28 -181 75 -136 219 -229
512 -334 100 -35 189 -68 220 -81 11 -4 57 -22 102 -39 45 -17 124 -53 177
-79 332 -169 495 -374 535 -674 45 -328 -53 -626 -278 -847 -47 -47 -119 -105
-158 -130 l-73 -45 0 -282 0 -283 173 -2 172 -3 0 -40 0 -40 -227 -3 -228 -2
0 301 c0 282 -1 301 -17 296 -72 -23 -122 -39 -148 -47 -57 -18 -220 -31 -335
-28 l-115 3 -3 -217 -2 -218 175 0 175 0 0 -45 0 -45 -227 2 -228 3 -3 272 -2
271 -33 7 c-58 12 -181 57 -235 86 -29 16 -59 29 -67 29 -13 0 -15 -46 -15
-335 l0 -335 -55 0 -55 0 0 349 0 350 38 3 37 3 -55 37 c-70 46 -205 161 -290
244 l-65 65 26 22 c14 12 71 58 125 101 54 44 120 97 146 118 26 21 51 38 56
38 5 0 34 -30 64 -68 159 -196 389 -312 619 -312 393 0 621 207 623 565 1 86
-3 121 -18 160 -77 198 -205 279 -692 440 -144 48 -213 74 -324 121 -33 15
-48 22 -148 75 -118 63 -263 211 -322 329 -53 104 -90 275 -90 410 0 80 26
239 52 315 64 192 208 369 373 461 11 6 36 20 55 30 109 60 243 99 445 128 73
11 313 -3 395 -22z m-5590 -58 c0 -16 86 -372 96 -399 5 -13 -89 -15 -855 -15
l-861 0 0 -475 0 -475 710 0 710 0 0 -220 0 -220 -710 0 -710 0 0 -545 0 -545
915 0 c611 0 915 -3 915 -10 0 -6 -4 -18 -9 -28 -6 -9 -38 -104 -71 -209 l-62
-193 -45 0 c-24 0 -54 -5 -65 -11 -14 -8 -23 -8 -31 0 -7 7 -75 11 -193 11
l-182 0 -31 -35 c-55 -64 -66 -92 -66 -185 0 -70 4 -93 24 -130 50 -96 133
-143 256 -143 69 -1 90 3 137 26 31 15 59 34 62 42 8 21 21 19 66 -11 33 -22
38 -29 28 -41 -20 -25 -91 -68 -143 -89 -69 -26 -229 -26 -300 1 -113 43 -182
104 -226 201 -24 52 -29 77 -29 141 0 77 19 151 47 184 30 36 19 39 -172 39
l-185 0 0 -285 0 -285 -55 0 -55 0 0 285 0 285 -155 0 -155 0 0 -58 c0 -88
-50 -151 -142 -181 -21 -7 -38 -15 -38 -17 0 -5 92 -146 100 -154 3 -3 29 -40
59 -83 l53 -78 -68 3 -69 3 -45 67 c-25 37 -70 105 -100 152 l-54 86 -58 0
-58 0 0 -155 0 -155 -55 0 -55 0 0 285 0 285 -95 0 -95 0 0 1675 0 1675 1060
0 c955 0 1060 -2 1060 -16z m4040 -284 c0 -332 0 -334 -69 -440 -37 -57 -336
-364 -350 -358 -18 7 -191 173 -191 183 0 5 22 33 48 60 92 98 161 210 162
263 0 21 -3 22 -110 22 l-110 0 0 285 0 285 310 0 310 0 0 -300z m-905 -2909
c81 -10 180 -46 204 -74 11 -14 7 -21 -21 -46 -37 -34 -50 -37 -67 -17 -19 23
-130 56 -188 56 -125 0 -246 -85 -279 -196 -40 -139 23 -280 150 -335 40 -17
70 -22 141 -21 50 0 110 5 133 11 l42 12 0 99 0 100 -85 0 -85 0 0 45 0 45
140 0 140 0 0 -174 0 -174 -42 -16 c-99 -35 -129 -40 -238 -40 -86 -1 -127 4
-165 17 -115 42 -186 101 -232 195 -25 50 -28 68 -28 152 0 84 3 102 28 152
54 110 169 191 297 207 36 5 67 9 70 10 3 0 41 -3 85 -8z m-2419 -159 c39 -81
97 -201 129 -267 31 -66 75 -156 97 -200 l39 -80 -57 -3 c-68 -4 -72 -1 -112
93 l-31 70 -188 3 -189 2 -35 -82 -36 -83 -61 -3 c-34 -2 -62 0 -62 3 0 6 69
149 258 538 l77 157 50 0 50 0 71 -148z m3376 128 c107 -33 161 -115 138 -214
-15 -66 -59 -107 -157 -143 -21 -8 -19 -14 63 -132 46 -68 93 -135 104 -149
11 -13 20 -29 20 -33 0 -5 -29 -9 -64 -9 l-64 0 -34 53 c-19 28 -53 81 -76
117 -90 143 -87 140 -147 140 l-54 0 -3 -152 -3 -153 -52 -3 -53 -3 0 350 0
351 159 0 c130 0 171 -4 223 -20z"/>
<path d="M2390 8684 l0 -596 243 5 c200 4 253 9 307 25 216 65 370 203 437
392 22 65 26 91 26 190 -1 63 -6 137 -12 165 -33 138 -141 275 -261 332 -142
68 -242 83 -547 83 l-193 0 0 -596z"/>
<path d="M2273 6083 c-19 -43 -43 -96 -53 -118 -11 -22 -24 -52 -29 -67 l-11
-28 140 0 c108 0 140 3 140 13 0 7 -4 17 -8 23 -5 5 -28 54 -52 109 -48 113
-66 145 -81 145 -6 0 -26 -35 -46 -77z"/>
<path d="M5062 6093 l3 -88 98 1 c113 2 170 21 193 65 17 34 18 50 2 84 l-11
25 -144 0 -144 0 3 -87z"/>
<path d="M7451 6148 c-21 -50 -46 -105 -85 -192 -20 -43 -36 -80 -36 -82 0 -2
63 -4 140 -4 148 0 155 3 127 45 -7 11 -37 75 -67 143 -29 67 -56 122 -59 122
-3 0 -12 -15 -20 -32z"/>
<path d="M10700 6108 l0 -111 106 6 c107 7 132 14 172 50 16 15 22 32 22 62 0
77 -53 105 -201 105 l-99 0 0 -112z"/>
</g>
</svg>
