<?xml version="1.0" standalone="no"?>
<!DOCTYPE svg PUBLIC "-//W3C//DTD SVG 20010904//EN"
 "http://www.w3.org/TR/2001/REC-SVG-20010904/DTD/svg10.dtd">
<svg version="1.0" xmlns="http://www.w3.org/2000/svg"
 width="1041.000000pt" height="798.000000pt" viewBox="0 0 1041.000000 798.000000"
 preserveAspectRatio="xMidYMid meet">

<g transform="translate(0.000000,798.000000) scale(0.100000,-0.100000)"
fill="#000000" stroke="none">
<path d="M0 7389 c0 -545 1 -590 16 -578 9 7 28 12 43 11 18 -2 34 5 50 22 17
19 28 23 37 16 9 -8 15 -3 22 20 6 17 9 37 6 44 -3 8 -1 17 5 21 6 3 11 19 11
34 0 16 7 48 15 71 8 23 15 52 15 64 0 44 21 95 41 101 11 4 26 19 32 33 7 14
22 37 35 51 23 25 27 47 13 70 -7 10 0 23 24 45 45 41 68 105 69 187 1 47 6
72 18 85 9 11 18 33 20 49 1 17 9 36 16 44 8 8 25 31 38 53 13 21 29 38 34 38
6 0 10 8 10 18 1 18 19 47 35 53 6 2 9 7 7 12 -1 4 2 7 8 7 5 0 10 5 10 10 0
6 -112 10 -315 10 l-315 0 0 -591z"/>
<path d="M2769 7870 c-25 -19 -28 -19 -68 -3 -34 13 -47 14 -62 5 -25 -16
-323 -16 -383 0 -35 9 -50 9 -77 -3 -19 -7 -38 -12 -43 -11 -5 2 -26 -11 -47
-28 -21 -16 -42 -30 -48 -30 -6 0 -19 -10 -31 -22 -11 -12 -27 -23 -35 -24
-20 -3 -64 -55 -65 -76 0 -9 -6 -23 -14 -30 -7 -8 -17 -24 -20 -36 -9 -27 -32
-29 -39 -2 -7 27 -32 35 -76 24 -32 -8 -36 -12 -33 -38 2 -16 10 -35 18 -43
17 -18 7 -43 -17 -43 -20 0 -27 -26 -8 -32 11 -4 12 -24 7 -82 -2 -23 1 -29
17 -31 11 -1 37 -7 58 -14 46 -15 88 -9 127 19 l29 21 33 -33 c39 -37 34 -36
125 -44 56 -5 76 -2 116 15 73 32 135 27 152 -12 13 -28 78 -46 106 -29 10 7
39 12 65 12 39 0 51 -5 82 -36 27 -27 48 -38 91 -46 31 -5 61 -13 66 -17 26
-20 135 -39 200 -35 172 9 166 8 143 33 -10 11 -10 13 0 7 6 -4 12 -2 12 4 0
6 4 9 9 6 5 -3 14 1 21 9 7 8 18 15 25 15 7 0 16 7 19 16 5 12 14 14 38 9 40
-9 46 -18 41 -53 l-5 -27 20 24 c11 13 24 21 30 17 14 -8 43 4 36 16 -3 5 3
17 15 27 11 10 18 20 15 24 -3 3 1 4 10 4 16 -2 16 -1 16 39 0 17 -6 28 -20
31 -28 8 -25 20 11 38 25 13 30 21 25 40 -3 13 -2 26 3 30 8 4 41 62 41 70 0
1 -23 16 -51 34 -28 17 -49 36 -47 43 4 12 -26 48 -40 48 -4 0 -12 10 -17 23
-8 17 -22 24 -60 30 -27 5 -64 13 -82 18 -24 8 -38 7 -55 -4 -38 -24 -68 -30
-68 -14 0 11 -11 13 -51 9 -46 -4 -53 -2 -74 21 -12 15 -25 24 -28 20 -4 -3
-11 6 -16 20 -6 16 -20 27 -38 31 -17 4 -35 19 -45 36 -20 35 -24 36 -59 10z
m131 -104 c0 -3 -4 -8 -10 -11 -5 -3 -10 -1 -10 4 0 6 5 11 10 11 6 0 10 -2
10 -4z m-1120 -195 c0 -6 -4 -13 -10 -16 -5 -3 -10 1 -10 9 0 9 5 16 10 16 6
0 10 -4 10 -9z"/>
<path d="M7688 7550 c-41 -22 -53 -56 -18 -47 11 3 18 2 15 -3 -9 -15 59 -17
92 -4 18 8 43 14 57 14 48 0 43 41 -6 45 -13 1 -41 5 -63 9 -30 4 -49 1 -77
-14z"/>
<path d="M7736 7434 c3 -23 -1 -43 -9 -53 -8 -9 -17 -26 -19 -38 -7 -28 26
-38 64 -18 15 7 28 9 28 4 0 -12 37 -12 45 1 3 6 0 16 -7 24 -12 11 -17 11
-33 0 -29 -22 -55 8 -55 62 0 24 -4 45 -10 49 -5 3 -7 -9 -4 -31z"/>
<path d="M3529 7412 c11 -8 10 -11 -5 -15 -16 -4 -15 -5 4 -6 25 -1 26 20 1
27 -12 3 -12 2 0 -6z"/>
<path d="M7449 7388 c-36 -29 -48 -59 -36 -87 7 -14 19 -33 28 -42 10 -10 15
-27 12 -41 -4 -20 0 -24 23 -26 17 -1 35 6 46 18 10 11 27 20 38 20 32 0 34
21 4 47 -23 20 -26 26 -14 33 8 6 29 10 46 10 19 0 34 6 38 15 3 9 0 15 -9 15
-8 0 -15 -4 -15 -10 0 -5 -12 -10 -27 -10 -14 0 -24 3 -21 6 3 3 -4 16 -17 30
-27 29 -74 40 -96 22z"/>
<path d="M3570 7363 c0 -6 -8 -13 -17 -16 -11 -2 -3 -7 19 -11 46 -10 70 -2
62 18 -5 12 -10 13 -26 5 -16 -8 -23 -8 -29 2 -6 9 -9 10 -9 2z"/>
<path d="M3219 6128 c-1 -7 -1 -15 -1 -18 0 -3 -9 -7 -21 -8 -145 -14 -205
-16 -277 -11 -67 5 -98 2 -148 -13 -34 -10 -67 -16 -74 -12 -6 4 -56 6 -112 5
-93 -1 -113 -5 -246 -51 -144 -49 -170 -65 -170 -105 0 -29 -67 -85 -102 -85
-16 0 -136 -59 -144 -71 -3 -5 -9 -7 -14 -4 -4 3 -3 -13 2 -36 8 -30 7 -50 -2
-79 -14 -42 -8 -80 16 -104 23 -23 47 -20 81 12 22 21 40 29 72 30 23 1 50 6
59 11 9 5 26 5 39 0 38 -14 126 -9 147 10 14 13 41 16 135 16 66 0 125 5 136
11 61 34 143 57 214 60 58 2 89 9 126 28 43 21 59 24 115 19 36 -2 76 -8 90
-13 14 -5 59 -12 100 -15 41 -3 100 -10 130 -14 30 -5 58 -7 61 -5 25 14 153
31 181 24 47 -12 201 -22 221 -14 11 4 17 17 17 40 0 28 -11 44 -70 104 -40
39 -79 70 -90 70 -25 0 -27 45 -5 78 15 21 14 23 -17 42 -19 11 -51 20 -75 20
-58 0 -156 27 -223 61 -62 31 -149 41 -151 17z"/>
<path d="M6851 6123 c-29 -2 -63 -10 -75 -17 -11 -7 -39 -14 -61 -15 -22 -2
-55 -9 -74 -17 -18 -8 -45 -14 -60 -14 -18 0 -38 -12 -63 -39 -19 -21 -49 -42
-66 -46 -17 -3 -48 -20 -68 -36 -36 -28 -40 -29 -118 -24 -45 3 -75 2 -67 -1
7 -4 35 -27 62 -52 l50 -46 -6 -95 c-3 -52 -3 -92 1 -89 3 4 14 -2 25 -13 15
-15 29 -18 69 -14 27 2 50 0 50 -5 0 -6 10 -10 23 -10 12 1 36 -2 53 -6 21 -4
34 -1 43 10 8 9 24 16 36 16 12 0 38 6 57 14 49 21 151 31 176 17 23 -12 147
-15 267 -5 122 9 267 3 352 -16 25 -6 53 -8 62 -6 51 16 130 14 205 -5 49 -12
129 -22 204 -25 91 -3 146 -11 209 -29 47 -14 87 -24 89 -23 1 2 3 14 5 28 6
52 -51 121 -145 175 -29 16 -91 56 -137 87 -46 31 -111 66 -144 79 -33 12 -64
25 -70 29 -25 20 -160 51 -255 59 -120 10 -239 35 -266 56 -18 13 -18 16 -2
44 l16 29 -31 6 c-34 6 -256 5 -346 -1z"/>
<path d="M3714 5987 c-12 -14 -8 -20 35 -49 22 -15 25 -16 40 -1 15 15 16 15
19 -4 2 -16 12 -22 43 -25 34 -3 38 -1 33 15 -8 27 -36 57 -46 51 -4 -3 -18 2
-30 10 -27 19 -79 20 -94 3z"/>
<path d="M0 5217 c0 -75 4 -137 8 -137 21 0 42 39 42 78 0 39 -33 178 -45 190
-3 3 -5 -56 -5 -131z"/>
<path d="M191 4383 c4 -16 -14 -89 -31 -123 -9 -19 -25 -59 -34 -87 -10 -29
-23 -56 -30 -60 -14 -9 -45 -112 -49 -163 l-2 -35 -23 35 -22 35 0 -102 c0
-101 0 -103 23 -103 29 0 47 -18 47 -46 0 -23 22 -48 33 -37 4 3 7 -10 7 -29
0 -27 6 -40 24 -51 22 -15 25 -15 30 0 4 8 1 22 -5 29 -13 16 -6 30 21 37 21
5 29 -8 9 -15 -7 -2 -3 -17 10 -42 18 -31 21 -49 17 -104 -3 -37 -8 -81 -11
-99 -6 -26 -3 -34 14 -45 12 -7 21 -18 21 -25 0 -7 12 -23 27 -37 25 -24 26
-27 20 -105 -7 -91 2 -128 33 -133 11 -2 20 -7 20 -13 -2 -11 31 -24 46 -18 8
3 11 39 10 108 -1 92 -3 106 -21 119 -11 9 -30 16 -41 16 -38 0 -46 22 -39
107 4 43 12 84 18 91 6 8 13 101 16 228 6 213 -2 311 -28 337 -6 6 -11 18 -11
27 0 9 -9 25 -19 34 -11 10 -22 38 -26 67 -4 27 -11 51 -16 54 -4 3 -6 19 -4
35 14 85 14 85 -11 103 -13 10 -24 15 -23 10z"/>
<path d="M4099 3079 c-26 -4 -64 -16 -85 -27 -22 -12 -66 -26 -99 -33 -33 -6
-72 -20 -87 -30 -15 -11 -33 -19 -40 -19 -22 0 -92 -40 -110 -63 -23 -29 -23
-94 1 -140 32 -62 40 -69 80 -62 34 5 40 2 101 -55 54 -52 69 -61 91 -56 15 3
30 2 33 -2 4 -3 48 -8 99 -10 51 -2 93 -7 95 -12 4 -12 42 -54 42 -47 0 3 14
2 30 -3 21 -6 30 -5 30 3 1 7 8 3 18 -8 18 -21 61 -28 63 -10 3 35 40 41 119
19 14 -4 37 -7 53 -8 15 0 27 -4 27 -9 0 -4 13 -5 30 -2 23 4 28 2 24 -9 -4
-10 6 -16 35 -21 23 -4 45 -14 49 -22 8 -13 13 -13 42 2 46 24 134 16 190 -18
l41 -24 41 19 c22 11 42 17 45 15 2 -3 30 3 60 14 31 10 66 19 78 19 12 0 32
12 46 26 13 14 38 32 54 40 17 7 37 17 45 22 22 13 60 33 100 54 28 15 30 18
12 18 -40 0 -23 15 40 35 35 11 70 27 78 35 8 8 23 14 33 12 9 -2 30 6 46 17
16 12 39 21 50 21 12 0 21 5 21 10 0 26 31 5 59 -40 17 -27 34 -50 38 -51 5 0
17 -3 28 -6 11 -3 40 -5 65 -5 25 1 77 2 115 2 71 1 125 14 125 32 0 5 5 6 10
3 6 -4 10 7 9 27 0 26 -2 29 -8 13 -7 -18 -9 -17 -24 11 -17 34 -34 44 -73 44
-27 0 -42 23 -26 43 15 18 8 71 -14 99 -39 53 -98 69 -250 70 -76 1 -114 -12
-152 -50 -47 -47 -94 -74 -154 -91 -26 -7 -49 -19 -52 -26 -2 -7 -26 -18 -53
-24 -26 -6 -69 -17 -95 -25 -27 -8 -48 -12 -48 -9 0 4 -7 -2 -16 -13 -8 -10
-13 -13 -9 -6 4 8 -2 12 -20 12 -24 0 -25 -1 -11 -16 41 -40 0 -53 -76 -24
-35 13 -51 30 -28 30 6 0 10 4 10 9 0 5 -26 13 -57 19 -32 6 -67 14 -77 18
-14 5 -17 4 -12 -5 5 -7 -14 4 -42 23 -55 40 -62 42 -62 21 0 -17 -27 -20 -50
-5 -8 5 -11 10 -7 10 5 0 2 7 -7 15 -17 18 -63 20 -68 4 -3 -8 -8 -7 -19 2
-29 28 -78 49 -112 49 -20 0 -38 4 -41 9 -4 5 -18 8 -33 6 -35 -4 -71 13 -78
36 -3 10 -14 21 -24 24 -10 3 -23 15 -28 28 -8 18 -26 25 -89 39 -87 18 -98
18 -165 7z m368 -155 c-3 -3 -12 -4 -19 -1 -8 3 -5 6 6 6 11 1 17 -2 13 -5z"/>
<path d="M1220 2661 c-5 -11 -10 -52 -10 -91 0 -54 -4 -72 -15 -76 -22 -9 -18
-34 5 -34 11 0 20 7 20 15 0 8 5 15 10 15 6 0 10 29 10 66 0 36 4 73 9 82 6
11 4 21 -5 30 -11 10 -15 8 -24 -7z"/>
<path d="M913 2633 c-16 -6 -18 -129 -3 -138 8 -5 7 -11 -1 -21 -13 -16 -1
-18 21 -4 13 9 13 11 1 19 -12 8 -12 12 -2 25 8 9 9 16 4 16 -6 0 -8 24 -5 55
2 30 3 55 1 54 -2 0 -10 -3 -16 -6z"/>
<path d="M1360 2583 c0 -7 5 -13 12 -13 6 0 4 -7 -5 -18 -10 -10 -17 -22 -17
-27 0 -5 -7 -16 -15 -24 -11 -13 -12 -25 -3 -59 6 -23 14 -39 19 -36 5 3 9 -4
9 -14 0 -11 7 -25 15 -32 13 -11 15 -8 15 18 0 16 7 35 15 42 12 10 15 9 15
-5 0 -12 6 -16 18 -13 13 4 18 -1 20 -20 1 -14 7 -31 12 -38 8 -8 8 -14 0 -19
-18 -11 -11 -35 15 -45 32 -12 32 -29 -2 -58 -25 -21 -26 -23 -7 -19 16 3 21
0 19 -12 -2 -9 -4 -18 -4 -20 -1 -3 -6 0 -13 7 -8 8 -17 8 -31 1 -14 -8 -18
-8 -13 0 4 6 2 11 -3 11 -6 0 -11 -7 -11 -16 0 -12 -6 -15 -22 -9 -13 3 -34 9
-48 12 -14 2 -34 8 -45 13 -43 18 -55 19 -70 4 -8 -9 -15 -11 -15 -6 0 5 -11
13 -25 16 -18 5 -25 13 -25 31 0 14 4 25 9 25 7 0 25 43 18 46 -1 0 4 8 10 16
11 12 9 17 -11 26 -18 8 -22 16 -19 35 3 16 -1 26 -12 30 -9 4 -15 3 -13 -1 2
-4 -15 -26 -37 -49 l-41 -42 -2 32 c-4 48 -12 46 -12 -3 0 -42 0 -43 -20 -25
-11 10 -18 21 -15 25 2 4 -6 5 -19 3 -39 -8 -40 -93 -1 -93 8 0 15 -3 16 -7 3
-29 10 -47 23 -62 9 -10 16 -35 16 -58 0 -23 5 -43 10 -45 6 -2 11 -17 13 -35
1 -17 4 -29 6 -27 7 6 58 -69 64 -95 3 -13 0 -33 -9 -45 -12 -19 -12 -25 1
-42 19 -25 19 -43 -1 -65 -19 -21 -12 -80 11 -99 17 -14 20 -56 5 -65 -15 -9
-12 -41 5 -55 8 -6 14 -15 13 -18 -2 -20 3 -33 11 -27 5 3 15 -1 23 -8 16 -15
61 -14 66 2 2 6 8 11 13 11 6 0 7 -4 4 -10 -3 -5 -2 -10 4 -10 5 0 13 5 16 10
9 14 45 12 45 -2 0 -9 3 -9 11 -1 9 9 15 8 26 -3 13 -12 48 -19 92 -16 11 0
12 -13 7 -66 -4 -36 -11 -72 -17 -78 -14 -17 4 -26 36 -18 14 3 25 12 25 20 0
16 50 44 78 44 27 0 33 10 19 34 -13 24 -10 199 4 204 5 2 9 20 9 40 1 36 1
36 14 13 8 -15 16 -20 20 -12 4 6 4 16 0 23 -4 6 -3 8 4 4 15 -9 25 11 24 45
0 16 4 29 9 29 5 0 9 7 9 15 0 8 7 15 15 15 8 0 15 -6 15 -14 0 -7 10 -13 23
-12 16 1 22 7 22 26 0 14 5 25 10 25 6 0 22 9 38 19 27 18 28 18 47 -4 27 -31
35 -19 34 47 -1 38 -7 60 -19 71 -10 10 -15 12 -12 7 6 -12 0 -24 -24 -43 -24
-18 -49 10 -49 54 0 20 -4 44 -10 54 -8 15 -6 20 8 24 20 7 20 25 3 115 -11
56 -34 91 -58 91 -14 0 -16 24 -4 54 10 27 -15 75 -46 87 -13 5 -21 14 -18 19
4 6 3 10 -2 9 -4 -1 -21 3 -38 10 -16 7 -51 15 -77 18 -48 6 -59 18 -36 41 7
7 9 13 5 13 -4 1 -11 3 -17 4 -5 1 -13 3 -17 4 -5 1 -1 5 7 11 21 13 11 18
-45 22 -37 3 -49 8 -47 18 2 11 -2 10 -11 -2 -18 -23 -25 -23 -48 5 -10 12
-18 16 -19 10z m-187 -303 c-6 -23 -33 -27 -33 -6 0 13 13 23 32 25 3 1 4 -8
1 -19z m583 -77 c-3 -3 -12 -3 -21 1 -13 5 -13 8 2 26 l18 21 3 -21 c2 -12 1
-24 -2 -27z m-101 -9 c-24 -22 -28 -23 -42 -9 -22 22 -2 43 37 37 l30 -4 -25
-24z m-465 -466 c-7 -19 -9 -15 -9 22 0 37 2 41 9 23 6 -14 6 -32 0 -45z m444
11 c-8 -13 -24 -1 -24 18 0 13 3 13 15 3 8 -7 12 -16 9 -21z m-25 -187 c5 -10
6 -32 1 -52 -4 -19 -8 -27 -9 -17 -1 9 -6 17 -12 17 -7 0 -9 8 -4 23 3 12 7
28 7 35 2 16 6 15 17 -6z"/>
<path d="M872 2547 c-15 -42 -15 -47 1 -47 7 0 13 16 14 40 2 22 1 40 0 40 -2
0 -8 -15 -15 -33z"/>
<path d="M1360 2330 c0 -19 3 -21 12 -12 9 9 9 15 0 24 -9 9 -12 7 -12 -12z"/>
<path d="M1217 2233 c-4 -3 -7 -11 -7 -17 0 -6 5 -5 12 2 6 6 9 14 7 17 -3 3
-9 2 -12 -2z"/>
<path d="M2989 1629 c-15 -15 -18 -23 -9 -29 8 -5 2 -17 -19 -38 -32 -32 -40
-59 -18 -67 6 -3 30 -6 52 -8 35 -2 40 1 43 21 2 12 12 27 23 33 16 8 19 19
17 46 -2 31 -8 39 -35 50 -30 12 -35 11 -54 -8z"/>
<path d="M4339 1506 c-3 -3 -225 -15 -369 -20 -19 0 -39 -4 -45 -7 -5 -4 -35
-10 -65 -14 -62 -7 -121 -26 -195 -61 -57 -27 -129 -53 -165 -61 -14 -3 -31
-10 -37 -16 -13 -10 -153 -17 -150 -7 1 3 -8 18 -20 34 -13 16 -23 25 -23 21
0 -4 -6 -2 -14 4 -16 14 -81 17 -114 7 -18 -6 -21 -4 -15 10 5 14 2 16 -20 10
-20 -5 -25 -3 -21 8 6 15 -21 46 -39 45 -9 0 -8 -2 1 -6 6 -2 12 -20 12 -38 0
-40 10 -71 19 -57 4 7 13 5 25 -3 21 -16 13 -35 -15 -35 -10 0 -19 -7 -19 -15
0 -8 4 -15 8 -15 4 0 8 -18 9 -40 2 -45 19 -83 33 -75 6 4 6 -4 0 -20 -13 -33
-13 -38 1 -29 8 5 9 -6 3 -37 -4 -24 -8 -53 -8 -65 -1 -11 -7 -28 -14 -37 -17
-20 -1 -80 31 -117 31 -36 93 -81 100 -73 4 3 24 -5 44 -19 26 -17 64 -29 118
-37 44 -7 94 -17 111 -22 17 -5 40 -11 50 -14 10 -2 52 -13 92 -25 69 -20 76
-21 150 -6 54 11 88 13 116 7 38 -9 191 7 261 28 17 5 66 14 110 21 76 11 161
27 196 36 18 5 22 34 4 34 -6 0 -21 9 -33 20 -46 43 -94 59 -181 61 -79 2 -86
4 -120 34 -36 31 -89 60 -126 67 -11 2 -53 -13 -92 -34 -69 -35 -73 -36 -83
-18 -15 29 -12 65 8 81 37 30 77 46 97 39 13 -5 36 1 65 16 25 13 76 33 114
44 72 22 103 22 316 0 47 -4 118 -9 159 -10 41 -1 79 -4 83 -6 5 -3 98 -8 208
-11 181 -5 207 -4 297 16 169 39 193 49 193 86 0 34 28 40 32 7 3 -24 8 -28
45 -33 24 -3 48 -2 55 3 22 14 101 9 171 -11 44 -12 80 -16 100 -12 49 11 160
3 200 -14 47 -19 67 -50 67 -102 0 -39 -4 -45 -39 -69 -22 -14 -42 -32 -45
-40 -7 -19 3 -44 19 -44 8 0 15 -8 17 -17 2 -13 22 -21 78 -31 116 -21 211
-26 220 -11 6 9 15 9 42 -4 86 -40 158 -57 246 -57 86 0 182 20 210 43 7 6 34
16 60 22 61 15 84 54 70 118 -20 94 -29 117 -44 117 -20 0 -74 28 -100 52 -25
22 -76 32 -196 38 -5 0 -16 8 -26 18 -41 40 -254 122 -319 122 -24 0 -59 6
-78 14 -31 13 -102 14 -161 1 -24 -5 -41 20 -22 31 23 15 -37 33 -88 27 -36
-4 -59 -1 -81 11 -67 34 -187 27 -199 -12 -3 -9 -10 -25 -15 -34 -6 -12 -6
-18 2 -18 8 0 8 -5 -1 -15 -17 -21 -84 -21 -76 0 3 8 2 14 -2 13 -4 -1 -16 3
-26 7 -12 5 -21 5 -23 -2 -2 -6 -23 -9 -48 -7 -24 2 -47 -1 -50 -6 -4 -7 -14
-3 -25 10 -18 20 -20 21 -44 5 -14 -10 -26 -21 -26 -26 0 -15 -27 -10 -41 7
-9 11 -23 14 -45 11 -18 -3 -44 1 -59 9 -26 13 -114 12 -136 -2 -4 -2 -10 0
-14 6 -6 10 -67 6 -85 -5 -4 -3 -18 8 -29 24 -12 17 -32 33 -44 37 -12 4 -36
18 -54 31 -39 30 -207 88 -295 103 -63 10 -141 13 -149 6z m1992 -526 c18 -10
27 -59 13 -72 -9 -10 -73 14 -90 33 -33 36 27 65 77 39z"/>
<path d="M1694 1463 c-14 -2 -24 -14 -27 -29 -4 -21 0 -24 23 -24 15 0 33 7
40 15 12 15 7 46 -7 44 -4 -1 -18 -4 -29 -6z"/>
<path d="M1248 1343 c-24 -6 -23 -23 2 -23 11 0 20 7 20 15 0 8 -1 14 -2 14
-2 -1 -11 -3 -20 -6z"/>
<path d="M1308 1303 c-9 -10 -13 -23 -11 -30 6 -16 -26 -63 -43 -63 -8 0 -14
7 -14 16 0 8 4 13 9 10 4 -3 6 6 3 19 -7 38 -22 30 -23 -12 -1 -38 -3 -54 -9
-63 -7 -13 -6 -50 1 -50 5 0 9 -12 9 -26 0 -22 3 -24 14 -15 11 9 16 9 21 0 6
-8 9 -8 15 1 5 7 9 2 12 -15 4 -20 0 -32 -18 -48 -13 -11 -24 -29 -24 -39 0
-21 -38 -68 -56 -68 -16 0 -23 -21 -14 -45 4 -11 3 -26 -4 -34 -9 -12 -8 -13
2 -7 12 7 12 4 2 -14 -10 -18 -9 -25 4 -38 14 -14 17 -14 33 4 10 11 34 27 54
37 36 16 59 51 59 89 0 17 5 20 30 16 17 -3 33 -1 36 4 3 4 19 8 35 8 17 0 32
6 35 15 4 8 12 15 20 15 8 0 14 6 14 14 0 7 7 20 16 27 9 7 20 24 25 37 5 13
13 21 17 18 13 -8 1 57 -13 74 -7 8 -11 25 -9 37 2 13 -6 32 -20 48 -28 30
-46 32 -46 5 0 -11 -7 -20 -16 -20 -8 0 -13 4 -10 8 3 5 -5 15 -17 23 -11 8
-35 29 -53 47 -36 37 -45 39 -66 15z"/>
<path d="M598 1133 c-18 -44 -28 -103 -17 -103 4 0 13 -16 20 -35 20 -55 109
-76 95 -22 -3 11 0 29 5 40 17 31 1 84 -37 122 -19 19 -38 35 -42 35 -5 0 -15
-17 -24 -37z"/>
<path d="M5664 883 c-47 -45 -42 -53 30 -49 100 6 141 42 75 65 -49 17 -73 13
-105 -16z"/>
<path d="M1575 828 c-85 -14 -103 -24 -114 -64 -6 -23 -13 -30 -39 -32 -18 -2
-30 -8 -27 -13 7 -10 -18 -39 -32 -39 -12 0 -43 -54 -43 -74 0 -9 -7 -16 -15
-16 -8 0 -14 4 -12 9 1 5 -17 23 -40 40 -24 17 -43 36 -43 42 0 5 -5 7 -10 4
-18 -11 -42 17 -36 42 5 18 1 24 -20 29 -19 5 -22 9 -12 15 7 5 11 9 8 9 -82
9 -110 6 -128 -15 -11 -12 -22 -39 -26 -59 -3 -20 -9 -53 -12 -73 -4 -21 -11
-41 -16 -44 -7 -4 -7 -13 -1 -24 7 -12 7 -29 0 -51 -8 -25 -7 -40 3 -58 7 -14
10 -37 7 -52 -5 -28 3 -48 36 -93 9 -13 17 -38 17 -55 0 -22 9 -40 30 -59 17
-16 30 -39 30 -52 0 -13 11 -37 24 -52 22 -25 27 -26 45 -15 34 20 41 14 41
-33 l0 -45 405 0 405 0 -16 37 c-9 21 -21 63 -27 93 -5 30 -18 66 -28 79 -13
15 -19 40 -19 71 0 32 -6 55 -20 73 -11 14 -20 30 -20 36 0 6 -4 11 -8 11 -4
0 -14 21 -21 48 -18 67 -37 105 -61 127 -11 10 -20 24 -20 32 0 7 -4 13 -8 13
-14 0 -41 70 -48 123 -11 82 -39 101 -129 85z m2 -283 c3 -51 -10 -74 -33 -60
-9 6 -16 14 -15 18 0 4 1 25 1 48 0 36 2 40 23 37 18 -2 22 -10 24 -43z m-100
-37 c-3 -8 -6 -5 -6 6 -1 11 2 17 5 13 3 -3 4 -12 1 -19z m-74 -12 c16 -2 33
-9 38 -17 6 -10 9 -10 9 -1 0 6 4 12 9 12 5 0 6 -12 2 -27 -13 -48 19 -143 65
-192 13 -14 24 -33 24 -41 0 -13 1 -13 10 0 5 8 10 11 10 6 0 -5 -7 -18 -17
-28 -9 -10 -12 -18 -6 -18 8 0 33 -41 33 -56 0 -2 -13 -18 -30 -34 -22 -22
-35 -27 -54 -22 -30 8 -96 62 -96 78 0 12 -65 74 -78 74 -4 0 -12 11 -19 25
-8 19 -8 25 0 25 7 0 5 5 -4 10 -15 9 -29 41 -34 80 -1 8 -5 24 -8 35 -5 14 0
28 16 45 13 14 26 33 30 44 6 15 13 17 40 11 17 -3 45 -8 60 -9z"/>
<path d="M940 401 c0 -25 6 -27 13 -6 4 8 2 17 -3 20 -6 4 -10 -3 -10 -14z"/>
<path d="M3950 10 c0 -5 18 -10 41 -10 24 0 38 4 34 10 -3 6 -22 10 -41 10
-19 0 -34 -4 -34 -10z"/>
</g>
</svg>
